<svg width="429" height="429" viewBox="0 0 429 429" fill="none" xmlns="http://www.w3.org/2000/svg">
<circle cx="214.5" cy="214.5" r="214.5" fill="#EF6D58"/>
<path fill-rule="evenodd" clip-rule="evenodd" d="M153.02 139.192C156.578 135.639 161.491 133.783 166.51 134.097C171.529 134.41 176.173 136.863 179.262 140.831L197.309 164.019C200.617 168.272 201.783 173.812 200.476 179.041L194.977 201.062C194.398 203.382 195.077 205.835 196.766 207.527L221.47 232.233C223.164 233.925 225.622 234.605 227.945 234.022L249.954 228.522C255.182 227.215 260.72 228.383 264.975 231.69L288.161 249.729C296.496 256.214 297.26 268.532 289.799 275.983L279.403 286.38C271.963 293.82 260.843 297.088 250.477 293.438C223.945 284.102 199.856 268.912 179.996 248.995C160.081 229.136 144.892 205.048 135.555 178.518C131.916 168.161 135.183 157.03 142.624 149.589L153.02 139.192Z" fill="white"/>
</svg>
