<svg width="424" height="425" viewBox="0 0 424 425" fill="none" xmlns="http://www.w3.org/2000/svg">
<circle cx="212" cy="212.875" r="212" fill="#EF6D58"/>
<path fill-rule="evenodd" clip-rule="evenodd" d="M222.022 292.083C261.34 288.687 291.494 256.502 291.5 217.923C291.495 184.3 268.446 154.849 235.247 146.043C236.128 143.045 235.516 139.817 233.594 137.326C231.673 134.836 228.666 133.372 225.475 133.375H205.16C201.968 133.372 198.961 134.836 197.04 137.326C195.119 139.817 194.507 143.045 195.388 146.043C157.291 156.136 133.39 192.997 140.317 230.978C147.244 268.958 182.704 295.478 222.022 292.083ZM254.811 179.167L254.832 179.155L254.812 179.165L254.811 179.167ZM254.811 179.167L204.552 207.231L175.805 256.385L226.086 228.309L254.811 179.167Z" fill="white"/>
</svg>
