<svg width="421" height="421" viewBox="0 0 421 421" fill="none" xmlns="http://www.w3.org/2000/svg">
<circle cx="210.5" cy="210.5" r="210.5" fill="#EF6D58"/>
<path fill-rule="evenodd" clip-rule="evenodd" d="M151.298 151.297C142.09 151.296 134.106 157.663 132.057 166.64L210.501 214.585L288.945 166.64C286.897 157.663 278.912 151.296 269.704 151.297H151.298ZM131.562 248.004V177.908L188.822 212.897L131.562 248.004ZM198.275 218.691L133.448 258.426C136.717 265.32 143.668 269.711 151.297 269.704H269.704C277.332 269.706 284.279 265.311 287.544 258.416L222.716 218.681L210.501 226.15L198.275 218.681V218.691ZM289.437 248.004L232.178 212.907V212.897L289.437 177.908V248.004Z" fill="white"/>
</svg>
