<svg width="701" height="701" viewBox="0 0 701 701" fill="none" xmlns="http://www.w3.org/2000/svg">
<path d="M350.5 525.75L266.62 690.815L269.057 505.676L118.076 612.853L206.272 450.053L22.7768 474.789L176.528 371.624L2.55554 308.252L186.638 288.355L62.0442 151.393L234.288 219.323L187.615 40.1477L308.56 180.342L350.5 0L392.44 180.342L513.385 40.1477L466.712 219.323L638.956 151.393L514.362 288.355L698.444 308.252L524.472 371.624L678.223 474.789L494.728 450.053L582.924 612.853L431.943 505.676L434.38 690.815L350.5 525.75Z" fill="#EF6D58"/>
<path fill-rule="evenodd" clip-rule="evenodd" d="M303.135 298.399C303.135 285.319 313.738 274.716 326.818 274.716C339.897 274.716 350.5 285.319 350.5 298.399C350.5 285.319 361.103 274.716 374.183 274.716C387.262 274.716 397.865 285.319 397.865 298.399V298.456C397.865 299.119 397.865 301.013 397.505 303.135H416.811C422.043 303.135 426.284 307.376 426.284 312.608V322.081C426.284 327.313 422.043 331.554 416.811 331.554H284.189C278.958 331.554 274.716 327.313 274.716 322.081V312.608C274.716 307.376 278.958 303.135 284.189 303.135H303.495C303.245 301.588 303.125 300.023 303.135 298.456V298.399ZM313.252 303.135H341.027V298.399C341.027 293.322 338.319 288.631 333.922 286.093C329.526 283.555 324.109 283.555 319.713 286.093C315.316 288.631 312.608 293.322 312.608 298.399C312.608 299.204 312.627 300.994 313.034 302.472C313.091 302.698 313.164 302.92 313.252 303.135ZM387.748 303.135H359.973V298.399C359.973 290.551 366.335 284.189 374.182 284.189C382.03 284.189 388.392 290.551 388.392 298.399C388.392 299.204 388.373 300.994 387.966 302.472C387.908 302.698 387.835 302.919 387.748 303.135ZM416.811 341.027V412.074C416.811 419.922 410.449 426.284 402.601 426.284H359.973V341.027H416.811ZM284.189 412.074C284.189 419.922 290.551 426.284 298.399 426.284H341.027V341.027H284.189V412.074Z" fill="white"/>
</svg>
