<svg width="380" height="120" viewBox="0 0 380 120" fill="none" xmlns="http://www.w3.org/2000/svg">
<g clip-path="url(#clip0_269_375)">
<path d="M155.66 68L160.076 50.276H165.968L170.36 68H166.544L163.016 52.544H163.04L159.476 68H155.66ZM158.828 63.896V60.992H167.228V63.896H158.828ZM181.279 66.488C182.063 66.568 182.747 66.72 183.331 66.944C183.923 67.16 184.383 67.484 184.711 67.916C185.039 68.34 185.203 68.908 185.203 69.62C185.203 70.444 184.931 71.144 184.387 71.72C183.851 72.304 183.063 72.748 182.023 73.052C180.983 73.356 179.723 73.508 178.243 73.508C176.059 73.508 174.367 73.192 173.167 72.56C171.975 71.936 171.379 71.1 171.379 70.052C171.379 69.756 171.411 69.488 171.475 69.248C171.547 69.016 171.635 68.816 171.739 68.648L175.123 69.14C175.083 69.196 175.039 69.28 174.991 69.392C174.951 69.512 174.931 69.66 174.931 69.836C174.931 70.26 175.247 70.576 175.879 70.784C176.519 70.992 177.343 71.096 178.351 71.096C179.063 71.096 179.671 71.044 180.175 70.94C180.687 70.844 181.075 70.7 181.339 70.508C181.611 70.316 181.747 70.096 181.747 69.848C181.747 69.488 181.571 69.252 181.219 69.14C180.875 69.028 180.475 68.948 180.019 68.9L175.195 68.408C174.307 68.32 173.571 68.064 172.987 67.64C172.403 67.216 172.111 66.644 172.111 65.924C172.111 65.476 172.235 65.068 172.483 64.7C172.731 64.324 173.015 64.016 173.335 63.776C173.655 63.528 173.923 63.372 174.139 63.308L176.035 64.268C175.883 64.292 175.703 64.388 175.495 64.556C175.295 64.724 175.195 64.92 175.195 65.144C175.195 65.368 175.307 65.56 175.531 65.72C175.763 65.88 176.183 65.988 176.791 66.044L181.279 66.488ZM182.539 55.256H185.815L184.483 60.152C184.235 61.08 183.867 61.908 183.379 62.636C182.891 63.356 182.239 63.924 181.423 64.34C180.615 64.756 179.595 64.964 178.363 64.964C177.067 64.964 175.943 64.764 174.991 64.364C174.047 63.964 173.319 63.4 172.807 62.672C172.295 61.936 172.039 61.068 172.039 60.068C172.039 59.068 172.299 58.188 172.819 57.428C173.347 56.668 174.063 56.076 174.967 55.652C175.879 55.228 176.911 55.016 178.063 55.016C178.935 55.016 179.731 55.16 180.451 55.448C181.179 55.728 181.763 56.1 182.203 56.564C182.651 57.028 182.883 57.54 182.899 58.1L182.215 58.28L182.539 55.256ZM178.339 62.24C178.867 62.24 179.331 62.156 179.731 61.988C180.131 61.812 180.443 61.56 180.667 61.232C180.891 60.896 181.003 60.492 181.003 60.02C181.003 59.556 180.891 59.16 180.667 58.832C180.443 58.504 180.131 58.252 179.731 58.076C179.331 57.9 178.867 57.812 178.339 57.812C177.835 57.812 177.379 57.904 176.971 58.088C176.571 58.264 176.255 58.52 176.023 58.856C175.791 59.184 175.675 59.584 175.675 60.056C175.675 60.52 175.787 60.916 176.011 61.244C176.235 61.564 176.547 61.812 176.947 61.988C177.347 62.156 177.811 62.24 178.339 62.24ZM188.583 62.744V60.284H197.031L196.671 60.908C196.671 60.844 196.671 60.784 196.671 60.728C196.671 60.664 196.671 60.604 196.671 60.548C196.671 60.092 196.563 59.656 196.347 59.24C196.131 58.816 195.795 58.472 195.339 58.208C194.891 57.936 194.315 57.8 193.611 57.8C192.907 57.8 192.299 57.952 191.787 58.256C191.283 58.552 190.895 58.98 190.623 59.54C190.359 60.1 190.227 60.776 190.227 61.568C190.227 62.384 190.355 63.084 190.611 63.668C190.875 64.244 191.263 64.688 191.775 65C192.295 65.312 192.939 65.468 193.707 65.468C194.203 65.468 194.631 65.424 194.991 65.336C195.351 65.24 195.643 65.12 195.867 64.976C196.099 64.832 196.275 64.672 196.395 64.496C196.515 64.32 196.587 64.148 196.611 63.98H200.283C200.235 64.516 200.051 65.044 199.731 65.564C199.411 66.076 198.967 66.54 198.399 66.956C197.831 67.364 197.139 67.688 196.323 67.928C195.515 68.168 194.591 68.288 193.551 68.288C192.143 68.288 190.915 68.008 189.867 67.448C188.819 66.88 188.007 66.1 187.431 65.108C186.855 64.108 186.567 62.956 186.567 61.652C186.567 60.332 186.859 59.176 187.443 58.184C188.035 57.184 188.855 56.408 189.903 55.856C190.959 55.296 192.179 55.016 193.563 55.016C194.979 55.016 196.203 55.3 197.235 55.868C198.267 56.428 199.063 57.216 199.623 58.232C200.183 59.24 200.463 60.416 200.463 61.76C200.463 61.96 200.459 62.152 200.451 62.336C200.443 62.52 200.431 62.656 200.415 62.744H188.583ZM211.764 68V62.588C211.764 62.284 211.764 62.008 211.764 61.76C211.764 61.512 211.764 61.288 211.764 61.088C211.764 60.56 211.696 60.08 211.56 59.648C211.424 59.208 211.18 58.856 210.828 58.592C210.476 58.328 209.968 58.196 209.304 58.196C208.728 58.196 208.228 58.328 207.804 58.592C207.388 58.856 207.068 59.224 206.844 59.696C206.62 60.168 206.508 60.712 206.508 61.328L205.476 60.584C205.476 59.48 205.716 58.512 206.196 57.68C206.676 56.848 207.324 56.196 208.14 55.724C208.964 55.252 209.876 55.016 210.876 55.016C211.924 55.016 212.784 55.228 213.456 55.652C214.136 56.068 214.64 56.652 214.968 57.404C215.304 58.148 215.472 59.02 215.472 60.02C215.472 60.428 215.472 60.884 215.472 61.388C215.472 61.892 215.472 62.408 215.472 62.936V68H211.764ZM202.788 68V55.256H206.508V68H202.788ZM224.677 68.288C223.277 68.288 222.049 68.008 220.993 67.448C219.937 66.88 219.117 66.092 218.533 65.084C217.957 64.076 217.669 62.912 217.669 61.592C217.669 60.256 217.957 59.1 218.533 58.124C219.117 57.14 219.937 56.376 220.993 55.832C222.049 55.288 223.277 55.016 224.677 55.016C225.725 55.016 226.653 55.172 227.461 55.484C228.269 55.788 228.945 56.192 229.489 56.696C230.033 57.2 230.445 57.752 230.725 58.352C231.005 58.952 231.145 59.548 231.145 60.14C231.145 60.148 231.145 60.164 231.145 60.188C231.145 60.204 231.145 60.22 231.145 60.236H227.461C227.461 60.188 227.457 60.144 227.449 60.104C227.449 60.056 227.441 60.008 227.425 59.96C227.361 59.624 227.221 59.308 227.005 59.012C226.789 58.716 226.485 58.476 226.093 58.292C225.709 58.1 225.229 58.004 224.653 58.004C224.037 58.004 223.485 58.14 222.997 58.412C222.517 58.684 222.137 59.088 221.857 59.624C221.577 60.152 221.437 60.808 221.437 61.592C221.437 62.36 221.577 63.024 221.857 63.584C222.137 64.136 222.517 64.56 222.997 64.856C223.485 65.152 224.037 65.3 224.653 65.3C225.285 65.3 225.801 65.204 226.201 65.012C226.601 64.812 226.901 64.548 227.101 64.22C227.301 63.884 227.421 63.516 227.461 63.116H231.145C231.145 63.708 231.005 64.312 230.725 64.928C230.453 65.536 230.045 66.092 229.501 66.596C228.965 67.1 228.293 67.508 227.485 67.82C226.677 68.132 225.741 68.288 224.677 68.288ZM233.938 73.508C233.538 73.508 233.178 73.492 232.858 73.46C232.546 73.436 232.35 73.408 232.27 73.376V70.556C232.374 70.604 232.554 70.64 232.81 70.664C233.074 70.696 233.354 70.712 233.65 70.712C234.042 70.712 234.394 70.632 234.706 70.472C235.026 70.32 235.298 70.1 235.522 69.812C235.754 69.532 235.934 69.2 236.062 68.816L236.278 68.168L231.886 55.256H235.762L238.534 65.708H238.102L240.766 55.256H244.594L240.214 68.636C239.886 69.644 239.482 70.512 239.002 71.24C238.522 71.968 237.882 72.528 237.082 72.92C236.282 73.312 235.234 73.508 233.938 73.508Z" fill="white"/>
<path d="M114.124 42.4131L93.4512 106.041H26.5488L5.875 42.4131L60 3.08984L114.124 42.4131Z" stroke="#EF6D58" stroke-width="5"/>
<path d="M58.75 35L81.3376 51.4108L72.7099 77.9642H44.7901L36.1624 51.4108L58.75 35Z" fill="#EF6D58"/>
</g>
<defs>
<clipPath id="clip0_269_375">
<rect width="380" height="120" fill="white"/>
</clipPath>
</defs>
</svg>
